<!DOCTYPE svg PUBLIC "-//W3C//DTD SVG 1.1//EN" "http://www.w3.org/Graphics/SVG/1.1/DTD/svg11.dtd">
<svg version="1.1" id="IconsRepoEditor" xmlns="http://www.w3.org/2000/svg" xmlns:xlink="http://www.w3.org/1999/xlink" x="0px" y="0px" width="128px" height="128px" viewBox="-17.11 -17.11 604.41 604.41" style="enable-background:new 0 0 570.191 570.192;" xml:space="preserve" fill="#008000" stroke="#008000" stroke-width="0">
<g id="IconsRepo_bgCarrier">
<rect x="-17.11" y="-17.11" width="604.41" height="604.41" rx="302.205" fill="#fef5bc" stroke-width="0"/>
</g> <path d="M45.61,354.74c19.865,11.506,47.356,6.503,68.795,3.247c4.572-0.698,64.685-13.125,64.704-12.996 c0.606,5.079-33.406,21.383-37.47,24.29c-18.357,13.124-36.943,31.041-41.791,53.97 c-11.716,55.523,62.715,124.845,111.782,137.057c46.234,11.506,89.664-16.655,105.335-60.113 c11.083-30.756,14.458-66.689,7.919-98.826c-1.518-7.438-19.321-45.122-16.215-50.97c2.549-4.792,41.249,26.744,43.725,29.042 c20.306,18.828,37.038,42.032,45.866,68.446c4.471,13.372,1.82,50.934,21.236,52.305c32.068,2.261,37.635-16.999,27.84-42.207 c-11.423-29.357-26.8-57.316-46.925-81.635c-4.683-5.667-56.95-53.593-56.877-53.703c2.556-3.411,34.673,7.062,38.323,7.754 c23.676,4.489,47.825,7.084,71.932,6.98c45.16-0.193,109.355-10.68,115.506-65.898c5.621-50.346-15.486-121.598-54.694-154.521 c-28.188-23.682-53.186-17.678-79.471,5.187c-13.023,11.331-25.285,23.565-36.543,36.659 c-3.127,3.632-22.476,33.975-26.965,32.549c-2.5-0.792,19.664-40.037,20.398-41.506c10.492-21.071,21.888-45.563,20.511-69.697 c-2.778-48.765-51.319-69.062-93.951-72.271c-50.511-3.791-129.866,10.19-150.071,65.457 c-9.648,26.396,7.255,56.895,17.283,80.778c1.793,4.269,26.332,60.316,25.726,60.371c-9.988,0.912-28.262-34.003-33.045-40.111 c-15.912-20.336-34.701-41.809-58.642-52.736C68.428,98.161,22.92,155.515,9.021,198.3C-6.952,247.517-5.645,325.051,45.61,354.74 z"/> </svg>